<svg width="43" height="36" viewBox="0 0 43 36" fill="none" xmlns="http://www.w3.org/2000/svg">
<path d="M5.2749 16.0936L7.68842 18.5072M12.294 26.9927C11.4004 27.8863 11.4004 29.3375 12.294 30.2311C13.1876 31.1247 14.6388 31.1247 15.5324 30.2311L18.2361 27.5273C19.1297 26.6337 19.1297 25.1825 18.2361 24.2889C17.3425 23.3953 15.8913 23.3953 14.9977 24.2889M12.294 26.9927L14.9977 24.2889M12.294 26.9927C11.4004 27.8863 9.94919 27.8863 9.05558 26.9927C8.16196 26.0991 8.16196 24.6479 9.05558 23.7543L11.7593 21.0505C12.6529 20.1569 14.1041 20.1569 14.9977 21.0505C15.8913 21.9441 15.8913 23.3953 14.9977 24.2889M24.9421 11.4575L34.9093 21.6386C35.7647 22.494 35.7418 23.9147 34.8558 24.8083C33.9699 25.6943 32.5492 25.7248 31.6938 24.8694L30.1434 23.3266L33.1526 26.3358C34.0157 27.1913 33.9851 28.6042 33.0992 29.4978C32.2132 30.3838 30.8002 30.4144 29.9371 29.559L29.8531 29.4749C30.7009 30.338 30.6704 31.7433 29.7844 32.6293C28.8908 33.5229 27.4701 33.5458 26.6147 32.6904L24.858 30.9108C25.6295 31.7739 25.5913 33.1258 24.7282 33.9888C23.8346 34.8824 22.414 34.9054 21.5585 34.0499L20.0539 32.5453M28.4707 5.81324H21.3523C20.5427 5.81324 19.7637 6.1493 19.2138 6.73741L15.5706 10.6174C14.7457 11.4957 14.7686 12.8781 15.6164 13.7336C16.4871 14.6043 17.9077 14.6043 18.7784 13.7336L21.3523 11.1597H24.6518M29.5018 29.1312L27.2105 26.8399M26.355 32.4078L24.0637 30.1165M37.636 14.9785L34.9628 17.6517M28.1967 2.9059L29.2769 1.82576C29.8734 1.22922 30.8406 1.22922 31.4372 1.82576L41.1584 11.547C41.755 12.1436 41.755 13.1107 41.1584 13.7073L40.0783 14.7874C39.4817 15.384 38.5145 15.384 37.918 14.7874L28.1967 5.06618C27.6002 4.46964 27.6002 3.50245 28.1967 2.9059ZM13.9124 2.37465L14.9926 3.45479C15.5891 4.05134 15.5891 5.01853 14.9926 5.61507L5.27132 15.3363C4.67477 15.9329 3.70759 15.9329 3.11104 15.3363L2.0309 14.2562C1.43436 13.6596 1.43436 12.6924 2.0309 12.0959L11.7521 2.37466C12.3487 1.77811 13.3159 1.77811 13.9124 2.37465ZM20.3976 31.8503L19.8553 32.3925C18.9617 33.2862 17.5105 33.2862 16.6169 32.3925C15.7233 31.4989 15.7233 30.0478 16.6169 29.1542L17.1592 28.6119C18.0528 27.7183 19.504 27.7183 20.3976 28.6119C21.2912 29.5055 21.2912 30.9567 20.3976 31.8503ZM10.6748 22.1274L10.1325 22.6697C9.23888 23.5633 7.78771 23.5633 6.8941 22.6697C6.00048 21.7761 6.00048 20.3249 6.8941 19.4313L7.43638 18.889C8.32999 17.9954 9.78116 17.9954 10.6748 18.889C11.5684 19.7827 11.5684 21.2338 10.6748 22.1274Z" stroke="#AAAAAA" stroke-width="1.5" stroke-linecap="round" stroke-linejoin="round"/>
</svg>
