<svg width="41" height="36" viewBox="0 0 41 36" fill="none" xmlns="http://www.w3.org/2000/svg">
<path d="M7.67975 21.1107L2.06186 10.7341C1.63129 9.86005 1.37842 8.87414 1.37842 7.82529C1.37842 4.26621 4.20103 1.37839 7.67975 1.37839C11.1585 1.37839 13.9811 4.26621 13.9811 7.82529C13.9811 8.87414 13.7351 9.86005 13.2976 10.7341L7.67975 21.1107ZM7.67975 21.1107L16.2569 21.1106C18.0886 21.1106 19.5716 22.6279 19.5716 24.5019C19.5716 26.3758 18.0886 27.8932 16.2569 27.8932H6.56572C4.73409 27.8932 3.25102 29.4105 3.25102 31.2844C3.25102 33.1584 4.73409 34.6757 6.56572 34.6757H31.6002M39.4325 18.1529C39.4325 13.7268 35.9264 10.1397 31.6002 10.1397C27.274 10.1397 23.768 13.7268 23.768 18.1529C23.768 19.4535 24.0755 20.6841 24.6154 21.7679L31.6002 34.6618L38.585 21.7679C39.1249 20.6771 39.4325 19.4535 39.4325 18.1529ZM34.5869 18.0341C34.5869 19.7192 33.2473 21.0897 31.6002 21.0897C29.9531 21.0897 28.6136 19.7192 28.6136 18.0341C28.6136 16.3489 29.9531 14.9784 31.6002 14.9784C33.2473 14.9784 34.5869 16.3489 34.5869 18.0341ZM10.0786 7.7274C10.0786 9.08391 9.00563 10.1887 7.67292 10.1887C6.34021 10.1887 5.2672 9.0909 5.2672 7.7274C5.2672 6.3639 6.34021 5.26611 7.67292 5.26611C9.00563 5.26611 10.0786 6.3639 10.0786 7.7274Z" stroke="#AAAAAA" stroke-width="1.5" stroke-linecap="round" stroke-linejoin="round"/>
</svg>
